# xmcd CD database file generated by OrangeCD 6.4
#
# Track frame offsets:
#	150
#	13610
#	27897
#	42090
#	55702
#	67817
#	80220
#	93980
#	107930
#	122257
#	137250
#	149535
#	163002
#	176122
#	186860
#	200167
#	215447
#	229127
#	242850
#	256247
#	270232
#	284090
#	297875
#	308627
#	321282
#
# Disc length: 4478 seconds
#
# Revision: 1
# Processed by: cddbd v1.5.2PL0 Copyright (c) Steve Scherf et al.
# Submitted via: OrangeCD 6.4
#
DISCID=6d117c19
DTITLE=Various Artist - The Worlds of Charley Patton (preview)
DYEAR=2001
DGENRE=Delta Blues
TTITLE0=Charley Patton - High Water Everywhere - Pt. 1
TTITLE1=Charley Patton - A Spoonful Blues
TTITLE2=Charley Patton - Mississippi Boweavil Blues
TTITLE3=Charley Patton - Some Summer Day
TTITLE4=Charley Patton - Rattlesnake Blues
TTITLE5=Charley Patton - Hang It On The Wall
TTITLE6=Charley Patton - Jim Lee - Pt. 1
TTITLE7=Charley Patton - Prayer Of Death - Pt. 1
TTITLE8=Charley Patton - High Sheriff Blues
TTITLE9=Charley Patton - Dry Well Blues
TTITLE10=Charley Patton - Revenue Man Blues
TTITLE11=Charley Patton - Elder Green Blues (Uniss. Test)
TTITLE12=Bertha Less - Mindreader Blues
TTITLE13=Bukka White - Sie 'em Dogs On
TTITLE14=Unknown Group - Unknown Title
TTITLE15=Walter Rhodes - Crowing Rooster
TTITLE16=Walter Rhodes - All Night Long Blues (Uniss. Test) 
TTITLE17=Kid Bailey - Rowdy Blues
TTITLE18=Bro. Wm Mosley and Delta Big Four - Watch And Pray
TTITLE19=Buddy Boy Hawkins - Snatch And Grab It
TTITLE20=Willie Brown - M&O Blues
TTITLE21=Willie Lofton Trio - Dark Road Blues
TTITLE22=Son House - Country Farm Blues
TTITLE23=The Howlin' Wolf - Forty Four
TTITLE24=Rev. Booker T Miller - Interview Excerpt
EXTD=
EXTT0=
EXTT1=
EXTT2=
EXTT3=
EXTT4=
EXTT5=
EXTT6=
EXTT7=
EXTT8=
EXTT9=
EXTT10=
EXTT11=
EXTT12=
EXTT13=
EXTT14=
EXTT15=
EXTT16=
EXTT17=
EXTT18=
EXTT19=
EXTT20=
EXTT21=
EXTT22=
EXTT23=
EXTT24=
PLAYORDER=
